/* XPM */
static char *_5947082791047aba4773eee637bd600XWxnZLcvS7cCpRVj[] = {
/* columns rows colors chars-per-pixel */
"32 32 90 1 ",
"  c #582E0A",
". c #5B300A",
"X c #5C310B",
"o c #5E330D",
"O c #5F340E",
"+ c #423113",
"@ c #493111",
"# c #4D3B16",
"$ c #4E3C16",
"% c #4E3D18",
"& c #503813",
"* c #523F19",
"= c #613815",
"- c #6C3E16",
"; c #53411B",
": c #55441E",
"> c #5F4C1C",
", c #6E4017",
"< c #6F4414",
"1 c #6F4118",
"2 c #614E1D",
"3 c #704219",
"4 c #714419",
"5 c #72491C",
"6 c #7A4F1B",
"7 c #7A4D1D",
"8 c #7E4F1E",
"9 c #7B501C",
"0 c #7E5020",
"q c #835121",
"w c #805424",
"e c #905220",
"r c #925522",
"t c #935624",
"y c #905827",
"u c #945927",
"i c #856D21",
"p c #8B7222",
"a c #8B7224",
"s c #8F7526",
"d c #8F7628",
"f c #907625",
"g c #957B25",
"h c #977D26",
"j c #997E27",
"k c #917728",
"l c #927B29",
"z c #997E28",
"x c #998228",
"c c #9E862A",
"v c #9B832E",
"b c #9F8332",
"n c #9D8632",
"m c #998434",
"M c #9F8936",
"N c #A1882B",
"B c #A1892D",
"V c #A08333",
"C c #A18433",
"Z c #A18434",
"A c #A58D32",
"S c #A08A37",
"D c #A58A37",
"F c #A68C35",
"G c #A88E36",
"H c #A18B38",
"J c #A98E3B",
"K c #A79037",
"L c #A89037",
"P c #AA9038",
"I c #AC913B",
"U c #AB913F",
"Y c #AE933D",
"T c #AF943F",
"R c #AA8E40",
"E c #AE9141",
"W c #AF9640",
"Q c #B09641",
"! c #B19745",
"~ c #B29844",
"^ c #B69B46",
"/ c #B59F4E",
"( c #B89D49",
") c #B5A04F",
"_ c #BAA04D",
"` c #B9A251",
"' c #BCA552",
"] c #BFA754",
"[ c #BFA855",
"{ c #C0A855",
/* pixels */
" &$:%$:%$;*#$:%$:%$;*#$:%$:%$;*+",
" ix)mx/mx!Jlx)mx/mx!Jlx)mx/mx!J>",
"XpF'FG((({QxF'FG((({QxF'FG((({W2",
"-zPTP^{~Y(TBPTP^{~Y(TBPTP^{~Y(Y2",
"OR('MB'_({Q^('MB'_({Q^('MB'_({W2",
"-kB(AG'HB'QvB(AG'HB'QvB(AG'HB'W2",
"1jG'LP(FG(TNG'LP(FG(TNG'LP(FG(Y2",
"1jG'W^{((]QBG'W^{((]QBG'W^{((]W2",
"1CITIY(SBYIJITIY(SBYIJITIY(SBYP2",
"1C^[W^{FF'QJ^[W^{FF'QJ^[W^{FF'W2",
"3sB'SB'HB(TvB'SB'HB(TvB'SB'HB(Y2",
"6fF'FG((({QxF'FG((({QxF'FG((({W2",
"4zPTP^{~Y(TBPTP^{~Y(TBPTP^{~Y(Y2",
"9E('MB'_({Q^('MB'_({Q^('MB'_({W2",
"3kB(AG'HB'QvB(AG'HB'QvB(AG'HB'W2",
"1jG'LP(FG(TNG'LP(FG(TNG'LP(FG(Y2",
",jG'W^{((]QBG'W^{((]QBG'W^{((]W2",
"obITIY(SBYIJITIY(SBYIJITIY(SBYP2",
"=Z^'Q^{FF`QP^'Q^{FF`QP^'Q^{FF`W2",
"XVYTIY(ncYIPYTIY(ncYIPYTIY(ncYP2",
".b^[W^{FF'QJ^[W^{FF'QJ^[W^{FF'W2",
" aB'SB'HB(TvB'SB'HB(TvB'SB'HB(Y2",
".pF'FG((({QxF'FG((({QxF'FG((({W2",
"=zPTP^{~Y(TBPTP^{~Y(TBPTP^{~Y(Y2",
"=R('MB'_({Q^('MB'_({Q^('MB'_({W2",
"=dB(AG'HB'QvB(AG'HB'QvB(AG'HB'W2",
"=gG'LP(FG(TNG'LP(FG(TNG'LP(FG(Y2",
"=hG'W^{((]QBG'W^{((]QBG'W^{((]W2",
"=VITIY(SBYIJITIY(SBYIJITIY(SBYP2",
"=b^[Q^{KG'QJ^[Q^{KG'QJ^[Q^{KG'W2",
"=aD`YJ`YG`YzD`YJ`YG`YzD`YJ`YD`U>",
"=17578ytruterutrutruteruq8w0<0<@"
};
