/* XPM */
static char *_35594eef01849b3aacd8fa5bd1ef25fVBoKO1YyuYydKgkP[] = {
/* columns rows colors chars-per-pixel */
"32 31 127 2 ",
"   c #3F3719",
".  c #532911",
"X  c #512D12",
"o  c #552D12",
"O  c #562F15",
"+  c #5B2F13",
"@  c #5C2F13",
"#  c #5A2E15",
"$  c #542E19",
"%  c #443A15",
"&  c #40371A",
"*  c #5C3013",
"=  c #5D3014",
"-  c #58321D",
";  c #633215",
":  c #6E3C16",
">  c #6D3B18",
",  c #6E3D1A",
"<  c #6B3B1E",
"1  c #6E3E1E",
"2  c #713E17",
"3  c #703F1D",
"4  c #4A2523",
"5  c #492724",
"6  c #4D2724",
"7  c #462923",
"8  c #4B2925",
"9  c #4F2924",
"0  c #4E2B29",
"q  c #4F2E2A",
"w  c #522B23",
"e  c #562E23",
"r  c #512A24",
"t  c #532E26",
"y  c #542E26",
"u  c #5A2E25",
"i  c #512E28",
"p  c #573025",
"a  c #593523",
"s  c #593027",
"d  c #5C3126",
"f  c #53322B",
"g  c #573329",
"h  c #52332D",
"j  c #58352B",
"k  c #56392F",
"l  c #573B33",
"z  c #593E36",
"x  c #6E4219",
"c  c #71401B",
"v  c #744319",
"b  c #73441A",
"n  c #75441A",
"m  c #76421C",
"M  c #74441F",
"N  c #7A451A",
"B  c #7D461B",
"V  c #79431C",
"C  c #7A441C",
"Z  c #7F471E",
"A  c #5B4137",
"S  c #5C4137",
"D  c #774622",
"F  c #784C2B",
"G  c #784E2C",
"H  c #794F2F",
"J  c #7B502F",
"K  c #684935",
"L  c #6A4C39",
"P  c #764D30",
"I  c #69503D",
"U  c #6C513D",
"Y  c #7B5130",
"T  c #7C5130",
"R  c #634F44",
"E  c #6C5A4D",
"W  c #725B47",
"Q  c #745D49",
"!  c #76634F",
"~  c #776450",
"^  c #716355",
"/  c #746256",
"(  c #7B6653",
")  c #7C6653",
"_  c #7D6754",
"`  c #7D6854",
"'  c #776759",
"]  c #7E6D58",
"[  c #7B6E5F",
"{  c #85471E",
"}  c #80481C",
"|  c #86481F",
" . c #894A1E",
".. c #81705B",
"X. c #85745A",
"o. c #89795D",
"O. c #A19478",
"+. c #A5987D",
"@. c #B5A88A",
"#. c #B6AB8D",
"$. c #B7AC8E",
"%. c #BCB193",
"&. c #BCB294",
"*. c #BAB596",
"=. c #BDB496",
"-. c #BFB798",
";. c #BFBA9C",
":. c #C3B69A",
">. c #C1BC9D",
",. c #C8BC9F",
"<. c #C3BEA0",
"1. c #C9BDA0",
"2. c #C9C3A5",
"3. c #CDC1A5",
"4. c #C9C4A5",
"5. c #CFC5A7",
"6. c #CFC6A8",
"7. c #D2C6AA",
"8. c #D3C8AB",
"9. c #D4C8AB",
"0. c #D5CAAC",
"q. c #D7CEAF",
"w. c #D4CFB0",
"e. c #D8CFB1",
"r. c #D5D0B1",
"t. c #DBD6B6",
"y. c #DCD7B6",
/* pixels */
"e h l z z A S A f i i k A S S S S S A f i i k z z z z z z q 1 v ",
"y X.O.+.+.+.+.+.I s 0 X.O.+.+.+.+.+.+.I u 0 X.O.+.+.+.+.+.R , N ",
"y o.@.%.;.=.;.&.W d 0 o.@.%.;.=.;.=.1.( d 0 o.@.%.;.=.;.&.E , N ",
"y o.#.>.-.>.-.>.! > t o.#.>.-.>.-.>.=.Q > t o.#.>.-.>.-.>.^ , N ",
"y o.*.-.>.-.>.5.( d 0 o.*.-.>.-.>.-.>.! d 0 o.*.-.>.-.>.5.' , N ",
"y o.$.>.-.>.-.<.~ : y o.$.>.-.>.-.>.5.) : y o.$.>.-.>.-.<.^ , N ",
"y o.*.-.>.-.>.5.) 2 y o.*.-.>.-.>.6.7.) 2 y o.*.-.>.-.>.5.' , N ",
"y o.$.>.-.>.6.7.) F j o.$.>.-.>.6.2.7.) F j o.$.>.-.>.6.7.' , N ",
"y o.*.-.>.6.2.7._ G j o.*.-.>.6.2.7.7.) G j o.*.-.>.6.2.7.' , N ",
"y o.$.<.6.2.7.7.) G j o.$.<.6.2.7.9.9.` G j o.$.<.6.2.7.7.' , N ",
"y o.-.6.2.7.9.9.` G j o.-.6.2.7.9.0.t...G j o.-.6.2.7.9.9.' , N ",
"y o.,.4.7.9.0.t...G j o.,.4.7.9.0.y.q.` G j o.,.4.7.9.0.t.[ , N ",
"y o.1.8.9.0.y.q.` G j o.1.8.9.0.y.e.t...G j o.1.8.9.0.y.q.' , N ",
"y o.1.9.0.y.e.t...G j o.1.9.9.y.e.y.q.` G j o.1.9.0.y.e.t.[ , N ",
"y X.:.3.r.7.r.6.( G j X.:.3.3.3.r.7.w.] G j X.:.3.r.7.r.6./ , N ",
"t a K L U L U L - G g a K L L L U L I a G g a K L U L U L q 3 N ",
"y < G T T T Y M + G g < G T T T T Y M + G g < G T T T Y M w 3 N ",
"t 5 $ O O O O o . G g 5 $ O O O O O o . G g 5 $ O O O O o 4 3 N ",
"t   % % % % % % X G g   % % % % % % % X G g   % % % % % % 7 3 N ",
"t   x n n v v v + G g   x n n v n v n * G g   x n v n v v t 3 N ",
"t & } B  .B N N * G g   } B | B | B | ; G g   x  .B | B N y 3 N ",
"t & } B  .B  .B @ G g   } B N N N N N = G g   x  .B N N | u 1 N ",
"t   b N N N  .B @ G g   c N  .B | B  .; G g   x N N  .B N y 3 N ",
"t & } B N N N N * G g   c N N N N N  .; G g   x N N  .B  .u 1 N ",
"t   b N  .B N N * G g   } B  .B N N N = G g   x  .B  .B  .u 1 N ",
"t & } B  .B | B @ G g   b N  .B  .B | ; G g   x N N N N N y 3 N ",
"t   b N N N N N * G g   } B N N  .B N = G g   x N N  .B  .u 1 N ",
"t & } B | B  .B @ c t & } B  .B  .B  .; c t   x  .B N N  .u 1 N ",
"t & Z C m v | V # , r & Z C | C | C | ; , r   x | C { C | u 3 N ",
"p 8 r r r r r r 6 9 6 8 r r r r r r r 9 9 6 8 9 r r r r r 9 1 v ",
"P D v v v v v v v v v v v v v v v v v v v v v v v v v v m J j 6 "
};
