/* XPM */
static char *_5fc692807ac420da828b6a7d32345d6PLiPsJ99X9u5F6T2[] = {
/* columns rows colors chars-per-pixel */
"32 32 111 2 ",
"   c #0D0016",
".  c #0A0219",
"X  c #0E071B",
"o  c #100515",
"O  c #131313",
"+  c #0E0520",
"@  c #1A1932",
"#  c #391F21",
"$  c #221C36",
"%  c #582E0A",
"&  c #5B300A",
"*  c #5C310B",
"=  c #5E330D",
"-  c #5F340E",
";  c #423113",
":  c #493111",
">  c #4D3B16",
",  c #4E3C16",
"<  c #4E3D18",
"1  c #503813",
"2  c #523F19",
"3  c #613815",
"4  c #6C3E16",
"5  c #571C27",
"6  c #5D2C28",
"7  c #53411B",
"8  c #55441E",
"9  c #5F4C1C",
"0  c #6E4017",
"q  c #6F4414",
"w  c #6F4118",
"e  c #614E1D",
"r  c #704219",
"t  c #714419",
"y  c #72491C",
"u  c #7A4F1B",
"i  c #7A4D1D",
"p  c #7E4F1E",
"a  c #7B501C",
"s  c #7E5020",
"d  c #2A2F4E",
"f  c #424C6E",
"g  c #EA323C",
"h  c #835121",
"j  c #805424",
"k  c #925522",
"l  c #935624",
"z  c #905827",
"x  c #945927",
"c  c #856D21",
"v  c #8B7222",
"b  c #8B7224",
"n  c #8F7526",
"m  c #8F7628",
"M  c #907625",
"N  c #957B25",
"B  c #977D26",
"V  c #997E27",
"C  c #917728",
"Z  c #927B29",
"A  c #997E28",
"S  c #BF6F4A",
"D  c #998228",
"F  c #9E862A",
"G  c #9B832E",
"H  c #9F8332",
"J  c #9D8632",
"K  c #998434",
"L  c #9F8936",
"P  c #A1882B",
"I  c #A1892D",
"U  c #A08333",
"Y  c #A18433",
"T  c #A18434",
"R  c #A58D32",
"E  c #A08A37",
"W  c #A58A37",
"Q  c #A68C35",
"!  c #A88E36",
"~  c #A18B38",
"^  c #A98E3B",
"/  c #A79037",
"(  c #A89037",
")  c #AA9038",
"_  c #AC913B",
"`  c #AB913F",
"'  c #AE933D",
"]  c #AF943F",
"[  c #AA8E40",
"{  c #AE9141",
"}  c #AF9640",
"|  c #B09641",
" . c #B19745",
".. c #B29844",
"X. c #B69B46",
"o. c #B59F4E",
"O. c #B89D49",
"+. c #B5A04F",
"@. c #BAA04D",
"#. c #B9A251",
"$. c #BCA552",
"%. c #BFA754",
"&. c #BFA855",
"*. c #C0A855",
"=. c #E69C69",
"-. c gray52",
";. c #92A1B9",
":. c #B4B4B4",
">. c #F6CA9F",
",. c #C7CFDD",
"<. c white",
/* pixels */
"% 1 , 8 < , 8 < , 7 2 > ,.,.o ,.,.,.,.7 2 > , 8 < , 8 < , 7 2 ; ",
"% c D +.K D o.K D  .^ + . o ;.;.o =.,.,.o Z D +.K D o.K D  .^ 9 ",
"* v Q $.Q ! O.O.O.*.| D ,.;.;.=.o o >.o o D Q $.Q ! O.O.O.*.} e ",
"4 A ) ] ) X.*...' O.] ,.;.;.=.=.<.g >.g ] I ) ] ) X.*...' O.' e ",
"- [ O.$.L I $.@.O.,.,.;.;.;.;.=.=.=.>.=.| X.O.$.L I $.@.O.*.} e ",
"4 C I O.R ! $.,.,.,.;.G I ;.;.,.,.,.,.,.| G I O.R ! $.~ I $.} e ",
"w V ! $.( ,.,.,.,.;.] <.<.:.;.;.,.=.=.,.] P ! $.( ) O.Q ! O.' e ",
"w V ! $.,.,.,.,.;.%.<.<.<.<.:.;.;.,.,.,.;.I ! $.} X.*.O.O.%.} e ",
"w Y _ ,.,.,.;.;.I <.<.<.<.<.<.:.;.;.,.,.;.@ _ ] _ ' O.E I ' ) e ",
"w Y X.,.,.;.;.Q <.<.<.:.:.<.<.<.:.;.;.;.;.d @ &.} X.*.Q Q $.} e ",
"r n I ;.;.;.$.<.<.<.:.-.:.<.<.<.<.:.-.f d d @ $.E I $.~ I O.' e ",
"u M Q ;.;.! O.<.<.:.:.-.-.:.:.<.<.-.:.f d d @ @ Q ! O.O.O.*.} e ",
"t A ) ] ;.X.<.<.<.:.-.I -.-.-.:.:.-.f f d d @ @ ) X.*...' O.' e ",
"a { O.$.L I <.<.:.-.-.X.-.:.:.:.-.:.f d d d @ @ @ I $.@.O.*.} e ",
"r C I O.R ! <.<.<.:.-.G I -.-.-.:.f f d d d $ $ @ ! $.~ I $.} e ",
"w V ! $.( ) O.6 6 # ] P ! X X f f f d d d $ S S $ ) O.Q ! O.' e ",
"0 V ! $.} X.*.6 6 6 # I X X X O O O O O O S S S S X.*.O.O.%.} e ",
"= H _ ] _ ' O.E 6 >.=.,.,.X d d d d d @ @ S   S S ' O.E I ' ) e ",
"3 T X.$.| X.*.Q Q >.=.S ,.@ d d d d d @ @ @ S S | X.*.Q Q #.} e ",
"* U ' ] _ ' O.J F 5 >.=.@ d d d d d d @ @ @ ' ] _ ' O.J F ' ) e ",
"& H X.&.} X.*.Q 5 5 @ @ d d d f d d d @ @ @ @ &.} X.*.Q Q $.} e ",
"% b I $.E I $.5 5 5 ] d d d d f d d @ @ @ @ @ $.E I $.~ I O.' e ",
"& v Q $.Q ! 5 5 5 *.| d d d f f d d @ @ @ @ @ @ Q ! O.O.O.*.} e ",
"3 A ) ] ) 5 5 5 ' O.d d d f f f d d @ @ @ @ @ @ ) X.*...' O.' e ",
"3 [ O.$.5 5 5 @.O.*.d d d f f f d @ @ @ @ @ @ @ L I $.@.O.*.} e ",
"3 m I 5 5 5 $.~ I $.d d f f f d d @ @ @ @ @ @ @ R ! $.~ I $.} e ",
"3 N ! 5 5 ) O.Q ! O.d d d d d d O.@ @ @ @ @ @ $.( ) O.Q ! O.' e ",
"3 B ! 5 } X.*.O.O.%.| d d d d X.*.O.@ @ @ @ ! $.} X.*.O.O.%.} e ",
"3 U _ ] _ ' O.E I ' _ # # # _ ' O.E I # # # _ ] _ ' O.E I ' ) e ",
"3 H X.&.| X.*./ ! $.| # # 6 | X.*./ ! # # # X.&.| X.*./ ! $.} e ",
"3 b W #.' ^ #.' ! #.' # 6 #.' ^ #.' ! # # # W #.' ^ #.' W #.` 9 ",
"3 w i y i p z l k x l # 6 6 l k x l k # # # # x h p j s q s q : "
};
