/* XPM */
static char *fc88c96c97f34a74bee73bbfb5d57c0f4KNG8OmNIet8OQNw[] = {
/* columns rows colors chars-per-pixel */
"32 32 97 2 ",
"   c #08000E",
".  c #0C0C0C",
"X  c #030013",
"o  c #050010",
"O  c #060116",
"+  c #06001C",
"@  c #381A1D",
"#  c #141230",
"$  c #1E1535",
"%  c #422F0C",
"&  c #492F09",
"*  c #5A2C04",
"=  c #5D2E04",
"-  c #4E3B0F",
";  c #4F3C0F",
":  c #5E3004",
">  c #51370C",
",  c #4F3D11",
"<  c #533F13",
"1  c #603206",
"2  c #63370F",
"3  c #6E3E10",
"4  c #591724",
"5  c #5F2925",
"6  c #544115",
"7  c #564419",
"8  c #72450D",
"9  c #614D16",
"0  c #724112",
"q  c #734214",
"w  c #744514",
"e  c #754A17",
"r  c #7D4E18",
"t  c #7E5217",
"y  c #272B4F",
"u  c #414B70",
"i  c #EC313E",
"p  c #815119",
"a  c #81521C",
"s  c #86531D",
"d  c #95571E",
"f  c #88701B",
"g  c #8E761F",
"h  c #987F1F",
"j  c #835620",
"k  c #965821",
"l  c #935A24",
"z  c #975B24",
"x  c #927A23",
"c  c #947B23",
"v  c #957F24",
"b  c #C2724B",
"n  c #9A8121",
"m  c #9C8223",
"M  c #9C8623",
"N  c #9E872A",
"B  c #9C8831",
"V  c #A18A25",
"C  c #A48C26",
"Z  c #A2872F",
"A  c #A48D29",
"S  c #A08A2E",
"D  c #A8912E",
"F  c #A38730",
"G  c #A48831",
"H  c #A28D33",
"J  c #A38E34",
"K  c #A48F35",
"L  c #A88E34",
"P  c #AB9233",
"I  c #AB9434",
"U  c #AD9435",
"Y  c #AC9239",
"T  c #AF9539",
"R  c #AD923E",
"E  c #AE953D",
"W  c #B1973B",
"Q  c #B1953F",
"!  c #B29A3E",
"~  c #B59C43",
"^  c #B49B44",
"/  c #B99F45",
"(  c #BBA148",
")  c #B8A34D",
"_  c #B8A44E",
"`  c #BDA44C",
"'  c #BCA651",
"]  c #BFA952",
"[  c #C2AB54",
"{  c #C3AC55",
"}  c #E8A06B",
"|  c #888888",
" . c #94A3BC",
".. c #B6B6B6",
"X. c #F7CDA2",
"o. c #C9D0DF",
"O. c white",
/* pixels */
"% < 6 ; , 7 ; , 7 ; - < 6 o.o.o.o.  o.o.- < 6 ; , 7 ; , 7 ; > * ",
"9 Y ^ M B ) M B _ M v   o.o.}    . .  X + Y ^ M B ) M B _ M f * ",
"9 ! { ( ( ( P P ] P M     X.    }  . .o.M ! { ( ( ( P P ] P g : ",
"9 W ( W ~ { / U ! U A ! i X.i O.} }  . .o.! ( W ~ { / U ! U m 3 ",
"9 ! { ( ` ] A H ] ( / ! } X.} } }  . . . .o.o.( ` ] A H ] ( R 1 ",
"9 ! ] A K ] P D ( A N ! o.o.o.o.o. . .A N  .o.o.o.] P D ( A c 3 ",
"9 W ( P P ( U I ] P C ! o.} } o. . ...O.O.!  .o.o.o.o.I ] P m 0 ",
"9 ! [ ( ( { / ! ] P A  .o.o.o. . ...O.O.O.O.[  .o.o.o.o.] P m 0 ",
"9 U W A J ( W T ! T #  .o.o. . ...O.O.O.O.O.O.A  . .o.o.o.T G 0 ",
"9 ! ] P P { / ! { # y  . . . ...O.O.O.....O.O.O.P  . .o.o./ G 0 ",
"9 W ( A K ] A J ] # y y u | ..O.O.O.O...| ..O.O.O.]  . . .A x q ",
"9 ! { ( ( ( P P # # y y u ..| O.O.....| | ....O.O.( P  . .P x t ",
"9 W ( W ~ { / U # # y y u u | ....| | | A | ..O.O.O./  .! U m w ",
"9 ! { ( ` ] A # # # y y y u ..| ......| / | | ..O.O.A H ] ( Q t ",
"9 ! ] A K ] P # $ $ y y y u u ..| | | A N | ..O.O.O.P D ( A c q ",
"9 W ( P P ( U $ b b $ y y y u u u O O P C ! @ 5 5 ( U I ] P m 0 ",
"9 ! { ( ( { / b b b b . . . . . . O O O A @ 5 5 5 { / ! ] P m 0 ",
"9 U W A J ( W b b o b # # y y y y y O o.o.} X.5 J ( W T ! T Z 1 ",
"9 ! ' P P { / ! b b # # # y y y y y # o.b } X.P P { / ! ] / G 2 ",
"9 U W V S ( W T ! W # # # y y y y y y # } X.4 V S ( W T ! W F : ",
"9 ! ] P P { / ! { # # # # y y y u y y y # # 4 4 P { / ! { / Z = ",
"9 W ( A K ] A J ] # # # # # y y u y y y y ! 4 4 4 ] A J ] A g * ",
"9 ! { ( ( ( P P # # # # # # y y u u y y y ! { 4 4 4 P P ] P g = ",
"9 W ( W ~ { / U # # # # # # y y u u u y y y ( W 4 4 4 U ! U m 2 ",
"9 ! { ( ` ] A H # # # # # # # y u u u y y y { ( ` 4 4 4 ] ( R 2 ",
"9 ! ] A K ] P D # # # # # # # y y u u u y y ] A K ] 4 4 4 A x 2 ",
"9 W ( P P ( U I ] # # # # # # ( y y y y y y ( P P ( U 4 4 P h 2 ",
"9 ! [ ( ( { / ! ] P # # # # ( { / y y y y ! [ ( ( { / ! 4 P n 2 ",
"9 U W A J ( W T ! T @ @ @ A J ( W T @ @ @ T W A J ( W T ! T F 2 ",
"9 ! ] P I { / ! { / @ @ @ P I { / ! 5 @ @ ! ] P I { / ! { / Z 2 ",
"9 E ' L W ' Y W ' L @ @ @ P W ' Y W ' 5 @ W ' P W ' Y W ' L g 2 ",
"& 8 a 8 a j p s z @ @ @ @ d k z d k 5 5 @ k z d k l p r e r 0 2 "
};
