/* XPM */
static char *_535bd4bc5144c9899a780ec6eacdc94njy9kZB7J5v6yvN1[] = {
/* columns rows colors chars-per-pixel */
"32 32 14 1 ",
"  c #020202",
". c #3B2717",
"X c #602F06",
"o c #693A17",
"O c #78441A",
"+ c #5B6768",
"@ c #87581E",
"# c #917B26",
"$ c #9F8727",
"% c #AB9039",
"& c #BCA04C",
"* c #C3AD5A",
"= c #889597",
"- c #E3F1F5",
/* pixels */
"XXXXXXXXXXXXXXXXXXXXXXXXXXXXXXXX",
"X#$*#$*#$*#$&#$&#$*#X#$*#$*#$&%X",
"X#%*$%&$%*&&*&&*$%*$X#%*$%&&&*%X",
"X$%%%&*$%&%      %&%O$%%%&*%%&%X",
"X&&*#$*%&*&      &*%X&&*#$*&&*%X",
"X#$&$%*%%&#  ----  #O#$&$%*#$*%X",
"X$%*$%&%&*$  ----  $O$%*$%&$%&%X",
"X$%*%&*#%*&  ====--  $%*%&*&&*%X",
"X%%%%%&%%&#  ====--  %%%%%&#$%%X",
"X%&*%&*%&*$  ====--  %&*%&*$%*%X",
"X#%*%%*%%%%  ====--  #$*#$*#$&%X",
"XXOXOOO      ------          *%X",
"X#$*#$*      ------          &%X",
"X#%*$  --------  --==++++==  *%X",
"X$%%%  --------  --==++++==  *%X",
"X&&  --====--      ==++++==  &%X",
"X#$  --====--      ==++++==  *%X",
"X$%  --====----  ========  #$%%X",
"X$%  --====----  ========  $%*%X",
"X%%          ======      %*%%*%X",
"X%&          ======      OOOXOXX",
"o#$*#$*#$&%  ==++++  #$&#$&#$*#o",
"X#%*$%&&&*%  ==++++  &&*&&*$%*$X",
"o$%%%&*%%&%  ==++++  %%&#%*%%&%o",
"o&&*#$*&&*%  ==++++  &&*$%&&&*%o",
"o#$&$%*#$*%X#  ====  #$*&&*#%&#o",
"o$%*$%&$%&%.$  ====  $%&#$&&&*$o",
"o$%*%&*&&*%X$%*      &&*&&*#$*%O",
"O%%%%%&#$%%X%%%      #$%#$*$%&#o",
"o%&*%&*$%*%X%&*%&*%&*$%*$%&&&*$O",
"O#%*%%*%%*%X#%*%%*%%%%%*&&*%%*%O",
"@OoOoooooXoXXXXXXXXXXoXooooOoOO@"
};
