/* XPM */
static char *_2698aef9f4c46c1d9293158679cc3e6l5GILiQcqnFQe6rH[] = {
/* columns rows colors chars-per-pixel */
"32 32 101 2 ",
"   c #373438",
".  c #3E3A3D",
"X  c #582E0A",
"o  c #5B300A",
"O  c #5C310B",
"+  c #5E330D",
"@  c #5F340E",
"#  c #423113",
"$  c #493111",
"%  c #4D3B16",
"&  c #4E3C16",
"*  c #4E3D18",
"=  c #503813",
"-  c #523F19",
";  c #613815",
":  c #6C3E16",
">  c #53411B",
",  c #55441E",
"<  c #5F4C1C",
"1  c #6E4017",
"2  c #6F4414",
"3  c #6F4118",
"4  c #614E1D",
"5  c #704219",
"6  c #714419",
"7  c #72491C",
"8  c #7A4F1B",
"9  c #7A4D1D",
"0  c #7E4F1E",
"q  c #7B501C",
"w  c #7E5020",
"e  c #433F40",
"r  c #534F54",
"t  c #585459",
"y  c #5E5A60",
"u  c #6D6970",
"i  c #835121",
"p  c #805424",
"a  c #905220",
"s  c #925522",
"d  c #935624",
"f  c #905827",
"g  c #945927",
"h  c #856D21",
"j  c #8B7222",
"k  c #8B7224",
"l  c #8F7526",
"z  c #8F7628",
"x  c #907625",
"c  c #957B25",
"v  c #977D26",
"b  c #997E27",
"n  c #917728",
"m  c #997E28",
"M  c #998228",
"N  c #9E862A",
"B  c #9B832E",
"V  c #9F8332",
"C  c #9D8632",
"Z  c #998434",
"A  c #9F8936",
"S  c #A1882B",
"D  c #A1892D",
"F  c #A08333",
"G  c #A18433",
"H  c #A18434",
"J  c #A58D32",
"K  c #A08A37",
"L  c #A58A37",
"P  c #A68C35",
"I  c #A88E36",
"U  c #A18B38",
"Y  c #A98D39",
"T  c #A79037",
"R  c #A89037",
"E  c #AA9038",
"W  c #AC913B",
"Q  c #AB913F",
"!  c #AE923C",
"~  c #AF943F",
"^  c #AA8E40",
"/  c #AE9141",
"(  c #AF9640",
")  c #B09640",
"_  c #B19745",
"`  c #B29844",
"'  c #B59A45",
"]  c #B59F4E",
"[  c #B89D49",
"{  c #B5A04F",
"}  c #BAA04D",
"|  c #B9A251",
" . c #BCA552",
".. c #BFA754",
"X. c #BFA855",
"o. c #C0A956",
"O. c #86838C",
"+. c #A7A7A7",
"@. c #B9B9B9",
"#. c #CBCBCB",
"$. c #EBEBED",
/* pixels */
"X = & , * & , * & > - % & , * & , * & >   % & , * & , * & > - # ",
"X h M { Z M ] Z M _ u @.u { Z M ] Z   +.+.  M { Z M ] Z M _ Y < ",
"O j P  .P I [ [ [ +.#.#.u  .P I [ [   #.#.@.   .P I [ [ [ o.( 4 ",
": m E ~ E ' o.` u #.#.u e ~ E ' o.`   u #.#.+.  E ' o.` ! [ ! 4 ",
"@ ^ [  .A D  .+.#.#.u e e  .A D  .}   r u #.#.@.  D  .} [ o.( 4 ",
": n D [ J I O.#.#.u t t e [ J I  .U   u u u #.#.+.   .U D  .( 4 ",
"3 b I  .R +.#.#.O.t t t e  .R E [ P   u e u u #.#.@.  P I [ ! 4 ",
"3 b I  .O.#.#.u t t . t e  .( ' o.[   u r e u u #.#.+.  [ ..( 4 ",
"3 G W +.$.$.O.t t e . t e ~ W ! [ K   u e e e u u $.#.$.D ! E 4 ",
"3 G ' . r O.t t . . r t e X.( ' o.P   u e y r e u u +.r P  .( 4 ",
"5 l D . e t t e . . r t e  .K D  .U   u e e e e r e e . D [ ! 4 ",
"8 x P . e t t . r r r t e  .P I [ [   u e e e y +.u e . [ o.( 4 ",
"6 m E . e t t . r r r . e ~ E ' o.`   e O.e e e +.u e . ! [ ! 4 ",
"q / [   e e t r r r u u e  .A D  .}   e u e e e +.y e . [ o.( 4 ",
"5 n D .   e t r r O.t u e [ J I  .U   e u u y e +.y r   D  .( 4 ",
"3 b I .   e t r u t t t e  .R E [ P   +.u r +.e +.y r   I [ ! 4 ",
"1 b I .   r t O.t t . t e  .( ' o.[   u e e r u +.u   . [ ..( 4 ",
"+ V W . e t t t t . r t e ~ W ! [ K   u e e u r #.u e . D ! E 4 ",
"; H ' . e t t t . . r t e  .) ' o.P   u e y r e r u e . P | ( 4 ",
"O F ! . e t t . r r r t e ~ W ! [ C   u r e e e u u e . N ! E 4 ",
"o V ' . e t t . r r r t e X.( ' o.P   u e e e y +.u e . P  .( 4 ",
"X k D . e t t r r r . t e  .K D  .U   u r y y e +.u e . D [ ! 4 ",
"o j P . e t t r r r u e e  .P I [ [   r O.e e e +.u e . [ o.( 4 ",
"; m E   e e t r . u t t   ~ E ' o.` ! r u +.y y +.y e . ! [ ! 4 ",
"; ^ [ .   e t r u t t ' [  .A D  .} [ o.r u +.e +.y r   [ o.( 4 ",
"; z D .   e t u t t   B D [ J I  .U D  .) r u +.+.y r   D  .( 4 ",
"; c I .   r t t t [ ~ S I  .R E [ P I [ ~ S r u #.u   . I [ ! 4 ",
"; v I . e t t t   ..) D I  .( ' o.[ [ ..) D I r u r e . [ ..( 4 ",
"; F W . e t t K D ! W Y W ~ W ! [ K D ! W Y W ~ r u e . D ! E 4 ",
"; V ' . e t   T I  .) Y ' X.) ' o.T I  .) Y ' X.) r e . I  .( 4 ",
"; k L |   Y | ! I | ! m L | ! Y | ! I | ! m L | ! Y   ! L | Q < ",
"; 3 9 7 9 0 f d s g d a s g d s g d s g d a s g i 0 p w 2 w 2 $ "
};
