/* XPM */
static char *_5c0ccdab1c140cfe1543a15cdbc936efnJUk715H3CwpBPF[] = {
/* columns rows colors chars-per-pixel */
"32 32 95 2 ",
"   c black",
".  c #582E0A",
"X  c #5B300A",
"o  c #5C310B",
"O  c #5E330D",
"+  c #5F340E",
"@  c #423113",
"#  c #493111",
"$  c #4D3B16",
"%  c #4E3C16",
"&  c #4E3D18",
"*  c #503813",
"=  c #523F19",
"-  c #613815",
";  c #6C3E16",
":  c #53411B",
">  c #55441E",
",  c #5F4C1C",
"<  c #6E4017",
"1  c #6F4414",
"2  c #6F4118",
"3  c #614E1D",
"4  c #704219",
"5  c #714419",
"6  c #72491C",
"7  c #7A4F1B",
"8  c #7A4D1D",
"9  c #7E4F1E",
"0  c #7B501C",
"q  c #7E5020",
"w  c #797979",
"e  c #835121",
"r  c #805424",
"t  c #905220",
"y  c #925522",
"u  c #935624",
"i  c #905827",
"p  c #945927",
"a  c #BE4A2F",
"s  c #856D21",
"d  c #8B7222",
"f  c #8B7224",
"g  c #8F7526",
"h  c #8F7628",
"j  c #907625",
"k  c #957B25",
"l  c #977D26",
"z  c #997E27",
"x  c #917728",
"c  c #927B29",
"v  c #997E28",
"b  c #F77622",
"n  c #998228",
"m  c #9E862A",
"M  c #9B832E",
"N  c #9F8332",
"B  c #9D8632",
"V  c #998434",
"C  c #9F8936",
"Z  c #A1882B",
"A  c #A1892D",
"S  c #A08333",
"D  c #A18433",
"F  c #A18434",
"G  c #A58D32",
"H  c #A08834",
"J  c #A58A37",
"K  c #A78E35",
"L  c #A88E36",
"P  c #A18B38",
"I  c #A98E3B",
"U  c #A79037",
"Y  c #A89037",
"T  c #AA9038",
"R  c #AC913B",
"E  c #AB913F",
"W  c #AE933D",
"Q  c #AF943F",
"!  c #AA8E40",
"~  c #AE9141",
"^  c #AF9540",
"/  c #B09640",
"(  c #B19745",
")  c #B29844",
"_  c #B59A45",
"`  c #B59F4E",
"'  c #B89D49",
"]  c #B5A04F",
"[  c #BAA04D",
"{  c #B9A251",
"}  c #BDA552",
"|  c #BFA754",
" . c #BFA855",
".. c #C0A956",
"X. c #B2B2B2",
/* pixels */
". * % > & % > & % : = $ % > & % > & % : = $ % > & % > & % : = @ ",
". s n ] V n ` V n ( I c n ] V n ` V n ( I c n ] V n ` V n ( I , ",
"o d a a a a ' ' '                                       ' ..^ 3 ",
"; v a a a a ..) W                                       W ' W 3 ",
"+ ! ' } C A a a a a a a a a a a a b b b b b b b b b b b     ^ 3 ",
"; x A ' G L a a a a a a a a a a a b b b b b b b b b b b     ^ 3 ",
"2 z L } a a a a   w w w w w w X.X.X.X.X.X.X.X.X.X.X.X.X.    W 3 ",
"2 z L } a a a a   w w w w w w X.X.X.X.X.X.X.X.X.X.X.X.X.    ^ 3 ",
"2 D a a R W ' H   w w w w w w X.X.X.X.X.X.X.X.X.X.X.X.X.    T 3 ",
"2 D _  .^ _ ..K   w w w w w w X.X.X.X.X.X.X.X.X.X.X.X.X.    ^ 3 ",
"4 g A } H A } P   w w w w w w X.X.X.X.X.X.X.X.X.X.X.X.X.    W 3 ",
"7 j K } K L ' '   w w w w w w X.X.X.X.X.X.    X.    X.X.    ^ 3 ",
"5 v T Q T _ ..)   w w w w w w X.X.X.X.X.X.    X.    X.X.    W 3 ",
"0 ~ ' } C A } [   w w w w w w X.X.X.X.X.X.    X.    X.X.    ^ 3 ",
"4 x A ' G L } P   w w w w w w X.X.X.X.X.X.    X.    X.X.    ^ 3 ",
"2 z L } Y T ' K   w w w w w w X.X.X.X.X.X.X.X.X.X.X.X.X.    W 3 ",
"< z L } ^ _ ..'   w w w w w w X.X.X.X.X.X.X.X.X.X.X.X.X.    ^ 3 ",
"O N R Q R W ' H A                                       A W T 3 ",
"- F _ } / _ ..K K                                       K { ^ 3 ",
"o S W Q R W ' B m     a a a a b b b b b b b b   R W ' B m W T 3 ",
"X N _  .^ _ ..K K     a a a a b b b b b b b b   ^ _ ..K K } ^ 3 ",
". f A } H A } P   a a a a b b b b b b b b     } H A } P A ' W 3 ",
"X d K } K L ' '   a a a a b b b b b b b b     } K L ' ' ' ..^ 3 ",
"- v T Q T _ ..)   a a a a b b b b b b b b     Q T _ ..) W ' W 3 ",
"- ! ' } C A     a a a b b b b b b b b     _ ' } C A } [ ' ..^ 3 ",
"- h A ' G L     a a a b b b b b b b b     M A ' G L } P A } ^ 3 ",
"- k L } Y T                           ' Q Z L } Y T ' K L ' W 3 ",
"- l L } ^ _                           | / A L } ^ _ ..' ' | ^ 3 ",
"- S R Q     ' H A W R I R Q R W '     W R I R Q R W ' H A W T 3 ",
"- N _  .    ..U L } / I _  ./ _ ..    } / I _  ./ _ ..U L } ^ 3 ",
"- f J { W I { W L { W v J { W I { W L { W v J { W I { W J { E , ",
"- 2 8 6 8 9 i u y p u t y p u y p u y p u t y p e 9 r q 1 q 1 # "
};
