/* XPM */
static char *da5400567b394d7799f543cacf2afd59swAs1aWJWWyLaYrg[] = {
/* columns rows colors chars-per-pixel */
"32 32 183 2 ",
"   c black",
".  c #0C0402",
"X  c #130C03",
"o  c #1F0D07",
"O  c #181309",
"+  c gray8",
"@  c #1D1A10",
"#  c #1D1C1B",
"$  c #220D06",
"%  c #280F07",
"&  c #250D08",
"*  c #261305",
"=  c #2A1304",
"-  c #311605",
";  c #211D11",
":  c #2C230B",
">  c #34230C",
",  c #362C0E",
"<  c #392F0F",
"1  c #3E330F",
"2  c #322A10",
"3  c #3B3110",
"4  c #1F2121",
"5  c #222323",
"6  c #2E2A21",
"7  c #2C2C2D",
"8  c #2C2F32",
"9  c #2E3133",
"0  c #333333",
"q  c gray22",
"w  c #4C1D12",
"e  c #48200F",
"r  c #592F09",
"t  c #5D320C",
"y  c #56261A",
"u  c #413313",
"i  c #473716",
"p  c #4E3C15",
"a  c #4E3D18",
"s  c #503813",
"d  c #523F19",
"f  c #72360F",
"g  c #762C1B",
"h  c #7F2E1C",
"j  c #623916",
"k  c #6D3F17",
"l  c #763810",
"z  c #4F4214",
"x  c #54431D",
"c  c #5E4D1A",
"v  c #6F4316",
"b  c #6F4118",
"n  c #614E1D",
"m  c #704319",
"M  c #72491C",
"N  c #7C4E1D",
"B  c #64541C",
"V  c #6C5B1F",
"C  c #7B501C",
"Z  c #5F4C20",
"A  c #5E522C",
"S  c #4D4739",
"D  c #615427",
"F  c #6D5C23",
"G  c #6F5E2A",
"H  c #7D5121",
"J  c #715E24",
"K  c #705F2A",
"L  c #72453B",
"P  c #756324",
"I  c #74632B",
"U  c #79662A",
"Y  c #7E6B2A",
"T  c #746531",
"R  c #3E4141",
"E  c #414141",
"W  c #494949",
"Q  c #555555",
"!  c #5C5C5C",
"~  c #656565",
"^  c #6A6A6B",
"/  c #747575",
"(  c #797776",
")  c #76797A",
"_  c #7B7C7C",
"`  c #812F1D",
"'  c #87361B",
"]  c #9D4514",
"[  c #A74C12",
"{  c #AA4E12",
"}  c #825323",
"|  c #925523",
" . c #935927",
".. c #9F562D",
"X. c #BE4A2F",
"o. c #BA5730",
"O. c #BC5C31",
"+. c #836D26",
"@. c #8C7224",
"#. c #8F7628",
"$. c #947A25",
"%. c #997D26",
"&. c #927728",
"*. c #927B2A",
"=. c #997E29",
"-. c #867335",
";. c #897535",
":. c #8D7B3C",
">. c #927D35",
",. c #BB6733",
"<. c #BA6D36",
"1. c #BA7A39",
"2. c #DD691E",
"3. c #E26C1F",
"4. c #CD552B",
"5. c #D4592C",
"6. c #C34B30",
"7. c #C94D32",
"8. c #C07D3D",
"9. c #E66A24",
"0. c #EA6D22",
"q. c #F16F26",
"w. c #F57521",
"e. c #F87621",
"r. c #FF7A23",
"t. c #96675C",
"y. c #BF7E41",
"u. c #9B6B60",
"i. c #A4746A",
"p. c #9A832A",
"a. c #9C8434",
"s. c #9F8936",
"d. c #95803C",
"f. c #9C853B",
"g. c #A3842D",
"h. c #A1882D",
"j. c #A18433",
"k. c #A48B35",
"l. c #A98E36",
"z. c #A38B38",
"x. c #A98E3A",
"c. c #B8883C",
"v. c #A79037",
"b. c #A89037",
"n. c #AD923D",
"m. c #A78E41",
"M. c #AB8E41",
"N. c #A38F48",
"B. c #BD8844",
"V. c #AE9441",
"C. c #B09643",
"Z. c #B59A46",
"A. c #B99349",
"S. c #B59F4E",
"D. c #B99E4A",
"F. c #B69F50",
"G. c #B5A04F",
"H. c #BAA04D",
"J. c #BCA552",
"K. c #BFA855",
"L. c #B5867B",
"P. c #C08A48",
"I. c #C0A955",
"U. c #CE9A7B",
"Y. c #D39E7B",
"T. c #DAA37F",
"R. c #7F8181",
"E. c #868686",
"W. c #878889",
"Q. c #8B8C8C",
"!. c #959595",
"~. c #9B9B9B",
"^. c #A5A5A5",
"/. c #A8A9A9",
"(. c #ABABAB",
"). c #B3B0AF",
"_. c #ACB0B2",
"`. c #B4B4B4",
"'. c #B9B6B4",
"]. c #B2B6B9",
"[. c #B5B9BC",
"{. c #BBBBBB",
"}. c #C39280",
/* pixels */
"u d x p a x p a x p p d x p a x p a x p p d x p a x p a x p s r ",
"c x.C.p.a.S.p.a.G.p.*.x.C.p.a.S.p.a.G.p.*.x.C.p.a.S.p.a.G.p.+.r ",
"n V.I.D.D.V.O                                 : -.C.1.X.X.X.@.t ",
"n n.D.n.V.N.> - - - - - - - - - = % & & & & & > U A.8.X.O.O.=.k ",
"n V.I.V.:.G [ { [ [ [ [ [ [ [ [ ] ' h h ` ` h ' ..<.O.O.B.B.M.t ",
"n V.J.*.B ; U.T.Y.Y.Y.Y.Y.Y.Y.Y.U.}.L.i.t.t.u.t.L y g ,.A.h.&.k ",
"n n.D.a.B # (.'.).).).).).).).).).`.^.Q.( ( _ / R O e <.A.l.%.b ",
"n V.K.m.K # _.[.].].[.].].[.[.].].]./.Q.) ) _ / R @ Z 1.y.<.%.b ",
"n n.n.*.B # (.{.`.(./.(.`.(.(.(.`.`.(.Q./ ( _ / E ; J c.,.o.j.b ",
"n V.J.p.B # (.{.(.E.~ _ /.^ / ~.].'.(.Q./ ( _ / E ; I c.P.1.j.b ",
"n n.D.*.B # (.{.(.! 5 Q ~.7 q Q.'.'.(.Q./ ( _ / E ; B j.J.g.#.m ",
"n V.I.m.K # (.{./.Q + W ~.# 7 E.'.'.(.Q./ ( _ / E ; F l.J.l.#.N ",
"n n.D.a.F # (.{./.Q + W ~.# 7 E.'.[.(.Q./ ( _ / E ; I n.n.n.=.m ",
"n V.I.m.I # (.{./.Q + W ~.# 7 E.'.[.(.Q./ ( _ / E ; B s.J.D.V.C ",
"n V.J.*.B # `.{.(./ W ^ /.W Q !.{.{.(.!.( ( _ / E ; V k.D.h.&.m ",
"n n.D.a.B # `.{.`.~.!.~.`.!.!.(.'.{.(.Q.( ( _ / E ; F b.J.l.%.b ",
"n V.K.V.-.A E.Q.Q.Q.Q.Q.W.Q.Q.W.W.Q.R.^ ! ! ! ! S D ;.V.J.l.%.b ",
"n n.n.p.*.d.0 0 0 0 9 9 8 9 9 9 8 9 7 5 4 5 5 6 D f.j.n.n.n.a.t ",
"n V.J.l.l.F.x : X X * = = = = = * $ o $ . X 2 z Y J.Z.C.J.Z.j.j ",
"n n.n.p.a.D.z.P : f 3.r.w.w.w.w.9.4.X.6.w , +.p.a.D.n.n.n.n.j.t ",
"n V.J.l.l.I.V.U 2 l 0.r.r.r.r.r.q.5.6.7.w , :.j.l.I.Z.V.K.Z.a.t ",
"n n.D.h.z.J.p.F 2 f 3.r.w.w.e.e.0.4.X.6.w , ;.p.z.J.h.j.J.h.@.r ",
"n V.I.D.D.D.j.P , f 3.r.w.w.e.e.0.4.X.6.w , :.C.D.D.l.l.J.l.@.t ",
"n n.D.n.C.I.V.P : f 3.r.w.w.e.e.0.4.X.6.w , ;.x.C.I.Z.n.n.n.=.j ",
"n V.I.D.H.J.p.F 2 l 0.r.r.r.r.r.q.5.6.7.w , :.C.H.J.h.s.J.D.M.j ",
"n V.J.h.z.J.j.P > f 2.e.w.w.w.w.9.4.X.X.w , :.p.z.J.l.k.D.h.#.j ",
"n n.D.l.l.D.j.P : X $ * * * * * * $ o o . , ;.k.l.D.n.b.J.l.$.j ",
"n V.K.D.D.I.V.U 2 1 c F T G K T F F I B , < :.C.D.I.Z.V.J.l.%.j ",
"n n.n.h.j.D.z.P 3 F >.a.a.*.*.V.a.a.s.a.B 1 Y p.j.D.n.n.n.n.j.j ",
"n V.J.l.v.I.V.I i Y k.C.J.l.v.I.Z.C.K.Z.F u ;.j.v.I.Z.C.K.Z.a.j ",
"c n.J.k.n.J.x.n.J.k.=.n.J.l.n.J.x.n.J.k.=.n.J.l.n.J.x.n.J.k.@.j ",
"i v H v H } N }  .| | |  .| |  .| |  .| | |  .| |  .N N M N b j "
};
