/* XPM */
static char *_a7eb9c43f32484db41c74301e761c71RwCcAgu4bzUn3yIe[] = {
/* columns rows colors chars-per-pixel */
"32 32 95 2 ",
"   c black",
".  c #5A2F09",
"X  c #5B300A",
"o  c #5C310B",
"O  c #5E330D",
"+  c #5F340E",
"@  c #423113",
"#  c #493111",
"$  c #4D3B16",
"%  c #4E3C15",
"&  c #4E3D18",
"*  c #503813",
"=  c #513F19",
"-  c #623816",
";  c #6D3F17",
":  c #53411B",
">  c #55441E",
",  c #5F4C1D",
"<  c #6E4017",
"1  c #6F4516",
"2  c #6D4218",
"3  c #614E1D",
"4  c #704219",
"5  c #714419",
"6  c #72491C",
"7  c #7A4F1B",
"8  c #7B4D1E",
"9  c #7E4F1E",
"0  c #7B501C",
"q  c #7C5122",
"w  c #797979",
"e  c #835121",
"r  c #805424",
"t  c #905220",
"y  c #915422",
"u  c #925624",
"i  c #905827",
"p  c #945927",
"a  c #BE4A2F",
"s  c #856D21",
"d  c #8B7222",
"f  c #8A7025",
"g  c #8F7526",
"h  c #8F7628",
"j  c #907625",
"k  c #957B25",
"l  c #977D26",
"z  c #997E26",
"x  c #927728",
"c  c #927B29",
"v  c #987E2B",
"b  c #F77622",
"n  c #9A832A",
"m  c #9E862A",
"M  c #9B832E",
"N  c #9F8333",
"B  c #9D8632",
"V  c #9B8536",
"C  c #9F8936",
"Z  c #A1882B",
"A  c #A0882D",
"S  c #A08333",
"D  c #A28433",
"F  c #A18434",
"G  c #A58D32",
"H  c #A08A37",
"J  c #A78B37",
"K  c #A78D34",
"L  c #A98F37",
"P  c #A18B38",
"I  c #A88E3B",
"U  c #A79037",
"Y  c #A89037",
"T  c #AB903A",
"R  c #AC913B",
"E  c #AB913F",
"W  c #AE933D",
"Q  c #AF943E",
"!  c #AB8E41",
"~  c #AE9141",
"^  c #AF9540",
"/  c #B09641",
"(  c #B19745",
")  c #B29844",
"_  c #B59A45",
"`  c #B59F4E",
"'  c #B89D49",
"]  c #B5A04F",
"[  c #BAA04D",
"{  c #BBA350",
"}  c #BCA552",
"|  c #BFA754",
" . c #BFA855",
".. c #C0A855",
"X. c #B2B2B2",
/* pixels */
"@ = : % & > % & > % $ = : % & > % & > % $ = : % & > % & > % * . ",
", I ( n V ` n V ] n c I ( n V ` n V ] n c I ( n V ` n V ] n s . ",
"3 ^ ..'                                       ' ' ' a a a a d o ",
"3 W ' W                                       W ) ..a a a a v ; ",
"3 ^     b b b b b b b b b b b a a a a a a a a a a a A C } ' ! + ",
"3 ^     b b b b b b b b b b b a a a a a a a a a a a L G ' A x ; ",
"3 W     X.X.X.X.X.X.X.X.X.X.X.X.X.w w w w w w   a a a a } L z 2 ",
"3 ^     X.X.X.X.X.X.X.X.X.X.X.X.X.w w w w w w   a a a a } L z 2 ",
"3 T     X.X.X.X.X.X.X.X.X.X.X.X.X.w w w w w w   H ' W R a a D 2 ",
"3 ^     X.X.X.X.X.X.X.X.X.X.X.X.X.w w w w w w   K .._ ^  ._ D 2 ",
"3 W     X.X.X.X.X.X.X.X.X.X.X.X.X.w w w w w w   P } A H } A g 4 ",
"3 ^     X.X.    X.    X.X.X.X.X.X.w w w w w w   ' ' L K } K j 7 ",
"3 W     X.X.    X.    X.X.X.X.X.X.w w w w w w   ) .._ T Q T v 5 ",
"3 ^     X.X.    X.    X.X.X.X.X.X.w w w w w w   [ } A C } ' ~ 0 ",
"3 ^     X.X.    X.    X.X.X.X.X.X.w w w w w w   P } L G ' A x 4 ",
"3 W     X.X.X.X.X.X.X.X.X.X.X.X.X.w w w w w w   K ' T Y } L z 2 ",
"3 ^     X.X.X.X.X.X.X.X.X.X.X.X.X.w w w w w w   ' .._ ^ } L z < ",
"3 T W A                                       A H ' W R Q R N O ",
"3 ^ { K                                       K K .._ / } _ F - ",
"3 T W m B ' W R   b b b b b b b b a a a a     m B ' W R Q W S o ",
"3 ^ } K K .._ ^   b b b b b b b b a a a a     K K .._ ^  ._ N X ",
"3 W ' A P } A H }     b b b b b b b b a a a a   P } A H } A f . ",
"3 ^ ..' ' ' L K }     b b b b b b b b a a a a   ' ' L K } K d X ",
"3 W ' W ) .._ T Q     b b b b b b b b a a a a   ) .._ T Q T v - ",
"3 ^ ..' [ } A C } ' _     b b b b b b b b a a a     A C } ' ! - ",
"3 ^ } A P } L G ' A M     b b b b b b b b a a a     L G ' A h - ",
"3 W ' L K ' T Y } L Z Q '                           T Y } L k - ",
"3 ^ | ' ' .._ ^ } L A / |                           _ ^ } L l - ",
"3 T W A H ' W R Q R I R W     ' W R Q R I R W A H '     Q R S - ",
"3 ^ } L U .._ /  ._ I / }     .._ /  ._ I / } L U ..     ._ N - ",
", E { J W { I W { J v W { L W { I W { J v W { L W { I W { J f - ",
"# 1 q 1 q r 9 e p y t u p y u p y u p y t u p y u i 9 8 6 8 2 - "
};
