/* XPM */
static char *eb037050a9f34480a49ece23af0ea4actRzqL1hJkf2KacHz[] = {
/* columns rows colors chars-per-pixel */
"32 32 183 2 ",
"   c black",
".  c #0C0402",
"X  c #130C03",
"o  c #1F0D07",
"O  c #181309",
"+  c gray8",
"@  c #1D1A10",
"#  c #1D1C1B",
"$  c #220D06",
"%  c #280F07",
"&  c #250D08",
"*  c #261305",
"=  c #2A1304",
"-  c #311605",
";  c #211D11",
":  c #2C230B",
">  c #34230C",
",  c #362C0E",
"<  c #392F0F",
"1  c #3E330F",
"2  c #322A10",
"3  c #3B3110",
"4  c #1F2121",
"5  c #222323",
"6  c #2E2A21",
"7  c #2C2C2D",
"8  c #2C2F32",
"9  c #2E3133",
"0  c #333333",
"q  c gray22",
"w  c #4C1D12",
"e  c #48200F",
"r  c #592F09",
"t  c #5D320C",
"y  c #56261A",
"u  c #413313",
"i  c #473716",
"p  c #4E3C15",
"a  c #4E3D18",
"s  c #503813",
"d  c #523F19",
"f  c #72360F",
"g  c #762C1B",
"h  c #7F2E1C",
"j  c #623916",
"k  c #6D3F17",
"l  c #763810",
"z  c #4F4214",
"x  c #54431D",
"c  c #5E4D1A",
"v  c #6F4316",
"b  c #6F4118",
"n  c #614E1D",
"m  c #704319",
"M  c #72491C",
"N  c #7C4E1D",
"B  c #64541C",
"V  c #6C5B1F",
"C  c #7B501C",
"Z  c #5F4C20",
"A  c #5E522C",
"S  c #4D4739",
"D  c #615427",
"F  c #6D5C23",
"G  c #6F5E2A",
"H  c #7D5121",
"J  c #715E24",
"K  c #705F2A",
"L  c #72453B",
"P  c #756324",
"I  c #74632B",
"U  c #79662A",
"Y  c #7E6B2A",
"T  c #746531",
"R  c #3E4141",
"E  c #414141",
"W  c #494949",
"Q  c #555555",
"!  c #5C5C5C",
"~  c #656565",
"^  c #6A6A6B",
"/  c #747575",
"(  c #797776",
")  c #76797A",
"_  c #7B7C7C",
"`  c #812F1D",
"'  c #87361B",
"]  c #9D4514",
"[  c #A74C12",
"{  c #AA4E12",
"}  c #825323",
"|  c #925523",
" . c #935927",
".. c #9F562D",
"X. c #BE4A2F",
"o. c #BA5730",
"O. c #BC5C31",
"+. c #836D26",
"@. c #8C7224",
"#. c #8F7628",
"$. c #947A25",
"%. c #997D26",
"&. c #927728",
"*. c #927B2A",
"=. c #997E29",
"-. c #867335",
";. c #897535",
":. c #8D7B3C",
">. c #927D35",
",. c #BB6733",
"<. c #BA6D36",
"1. c #BA7A39",
"2. c #DD691E",
"3. c #E26C1F",
"4. c #CD552B",
"5. c #D4592C",
"6. c #C34B30",
"7. c #C94D32",
"8. c #C07D3D",
"9. c #E66A24",
"0. c #EA6D22",
"q. c #F16F26",
"w. c #F57521",
"e. c #F87621",
"r. c #FF7A23",
"t. c #96675C",
"y. c #BF7E41",
"u. c #9B6B60",
"i. c #A4746A",
"p. c #9A832A",
"a. c #9C8434",
"s. c #9F8936",
"d. c #95803C",
"f. c #9C853B",
"g. c #A3842D",
"h. c #A1882D",
"j. c #A18433",
"k. c #A48B35",
"l. c #A98E36",
"z. c #A38B38",
"x. c #A98E3A",
"c. c #B8883C",
"v. c #A79037",
"b. c #A89037",
"n. c #AD923D",
"m. c #A78E41",
"M. c #AB8E41",
"N. c #A38F48",
"B. c #BD8844",
"V. c #AE9441",
"C. c #B09643",
"Z. c #B59A46",
"A. c #B99349",
"S. c #B59F4E",
"D. c #B99E4A",
"F. c #B69F50",
"G. c #B5A04F",
"H. c #BAA04D",
"J. c #BCA552",
"K. c #BFA855",
"L. c #B5867B",
"P. c #C08A48",
"I. c #C0A955",
"U. c #CE9A7B",
"Y. c #D39E7B",
"T. c #DAA37F",
"R. c #7F8181",
"E. c #868686",
"W. c #878889",
"Q. c #8B8C8C",
"!. c #959595",
"~. c #9B9B9B",
"^. c #A5A5A5",
"/. c #A8A9A9",
"(. c #ABABAB",
"). c #B3B0AF",
"_. c #ACB0B2",
"`. c #B4B4B4",
"'. c #B9B6B4",
"]. c #B2B6B9",
"[. c #B5B9BC",
"{. c #BBBBBB",
"}. c #C39280",
/* pixels */
"r s p x a p x a p x d p p x a p x a p x d p p x a p x a p x d u ",
"r +.p.G.a.p.S.a.p.C.x.*.p.G.a.p.S.a.p.C.x.*.p.G.a.p.S.a.p.C.x.c ",
"t @.X.X.X.1.C.-.:                                 O V.D.D.I.V.n ",
"k =.O.O.X.8.A.U > & & & & & % = - - - - - - - - - > N.V.n.D.n.n ",
"t M.B.B.O.O.<...' h ` ` h h ' ] [ [ [ [ [ [ [ [ { [ G :.V.I.V.n ",
"k &.h.A.,.g y L t.u.t.t.i.L.}.U.Y.Y.Y.Y.Y.Y.Y.Y.T.U.; B *.J.V.n ",
"b %.l.A.<.e O R / _ ( ( Q.^.`.).).).).).).).).).'./.# B a.D.n.n ",
"b %.<.y.1.Z @ R / _ ) ) Q./.].].].[.[.].].[.].].[._.# K m.K.V.n ",
"b j.o.,.c.J ; E / _ ) ( Q./.`.`./././.`./.^./.`.{./.# B *.n.b.n ",
"b j.1.P.c.U ; E / _ ) ( Q./.`.`.~./ ^ ^._ ~ E./.{./.# B p.J.V.n ",
"m #.g.J.z.B ; E / _ ) ( Q./.`.`.W.q 7 ~.Q 5 ! ^.{./.# B *.D.n.n ",
"N #.l.J.l.F ; E / _ ) ( Q./.`.`.E.7 # ~.W + Q ^.{./.# K m.I.V.n ",
"m =.b.n.x.I @ E / _ ) ( Q./.`.`.E.7 # ~.W + Q ^.{.(.# F s.D.n.n ",
"C V.D.J.s.B @ R / _ ) ( Q./.'.`.E.7 # ~.W + Q ^.{.(.# I m.I.V.n ",
"m &.h.D.k.V ; E ( E.) ) Q./.{.{.!.Q W ^.^ W / /.{.`.# B *.J.V.n ",
"b %.l.J.b.F ; E ( L.) ) Q./.{.'./.!.!.`.~.!.^.`.{.`.# B a.D.n.n ",
"b %.l.J.V.;.D S ! ! ! ! ^ R.W.W.W.W.Q.W.W.Q.W.W.Q.E.A -.V.K.V.n ",
"t a.n.n.n.z.f.D 6 5 5 4 5 7 9 8 9 9 9 8 9 9 0 0 0 0 d.*.p.n.b.n ",
"j j.Z.J.C.Z.J.Y z 2 X . $ o $ * = = = = = * X X : x F.l.l.J.V.n ",
"t j.n.n.n.n.D.a.p.+., w 6.X.4.9.w.w.w.w.r.3.f : P z.D.a.p.n.b.n ",
"t a.Z.K.V.Z.I.l.k.:., w 7.6.5.q.r.r.r.r.r.0.l 2 U V.I.l.l.J.V.n ",
"r @.h.J.z.h.J.z.p.;., w 6.X.4.0.e.e.w.w.r.3.f 2 G p.J.z.h.D.n.n ",
"t @.l.J.l.l.D.D.C.:., w 6.X.4.0.e.e.w.w.r.3.f , P z.D.D.D.I.V.n ",
"j =.b.n.b.Z.I.C.x.;., w 6.X.4.0.e.e.w.w.r.3.f : P V.I.C.n.D.n.n ",
"j M.D.J.s.h.J.H.C.:., w 7.6.5.q.r.r.r.r.r.0.l 2 F p.J.H.D.I.V.n ",
"j #.h.D.k.l.J.z.p.:., w X.X.4.9.w.w.w.w.e.2.f > P j.J.z.h.J.V.n ",
"j $.l.J.b.b.D.l.k.;., . o o $ * * * * * * $ X : P z.D.l.l.D.n.n ",
"j %.l.J.V.Z.I.D.C.:.< , B I F G T K G T F c 1 2 U V.I.D.D.K.V.n ",
"j j.n.n.n.n.D.z.p.Y 1 B s.s.a.a.V.*.*.s.s.>.F 3 P z.D.z.h.n.b.n ",
"j a.Z.K.C.Z.I.v.k.;.u F Z.K.C.Z.I.v.l.J.C.k.Y i U V.I.v.l.J.V.n ",
"j @.k.J.n.x.J.n.l.J.n.=.k.J.n.x.J.n.l.J.n.=.k.J.n.x.J.n.k.J.n.c ",
"j b N M N N  .| |  .| | |  .| |  .| |  .| | |  .} N } H v H v i "
};
