/* XPM */
static char *e49058c92d054d60a0d7384d9120d37cbmpjZdH4ImVAd9JX[] = {
/* columns rows colors chars-per-pixel */
"32 32 9 1 ",
"  c #373438",
". c #433F40",
"X c #534F54",
"o c #5E5A60",
"O c #6D6970",
"+ c #86838C",
"@ c #A7A7A7",
"# c #CBCBCB",
"$ c #EBEBED",
/* pixels */
"                                ",
"$@@@@@@@@@@@@@@o$@@@@@@@@@@@@@@ ",
"$##############o$############## ",
"$$$$$$#$$##$###o$$$$$$#$$##$### ",
"@OOOOOOOOOOOOOO.@OOOOOOOOOOOOOO ",
"@.XOOOOOOOOOO.O.@.XOOOOOOOOOO.O ",
"@XOOOOOOOOOOOOO.+XOOOOOOOOOOOOO ",
"+OO.........+OO.@OO.........+OO ",
"+OO.X.XXX.XX@OO.@OO.XXXXXXXX@OO ",
".+O.........@OO.+OO.........@OX ",
"o+O.ooo.ooo.@OO.@OO.oooooooo@OX ",
"o+O.o.ooo.oo@OO.+OO.oooooooo@OX ",
"o+O.........@OO.+OO.........@OX ",
"XOO.ooo.ooo.@OO.+OO.oooooooo@Oo ",
"+OO.o.ooo.oo#OO.+OO+oooooooo@OO ",
"+OOX+++++++#O.O.+.OO++++++++@OO ",
"+OOO+@@@@@#OO.O.+..O@@@@@@@@#OO ",
"+OOOOOOOOOOO.XO.+..OOOOOOOOOOOO ",
"+OOOOOOOOOOO.XO.+..OOOOOOOOOOOO ",
"+OO........OOXO.@.@O........XOO ",
"+OO.X.XXX.XXOOO.+OO..XXXXXXX@OO ",
"+OO.........@OO.+OO.........@OO ",
".+O.ooo.ooo.@OO.+OO.oooooooo@OX ",
"o+O.o.ooo.oo@OO.@OO.oooooooo@OX ",
"o+O.o.ooo.oo@OO.+OO.oooooooo@OX ",
"o+O.ooo.ooo.@OO.+OO.oooooooo@OX ",
".+O.........@OO.+OO.........@OX ",
"+OO.o.ooo.oo@OO.+OO.oooooooo@OO ",
"+XOO+@@@@@@@#OO.+XOO+@@@@@@@#OO ",
"+.XOOOOOOOOOO.O.+.XOOOOOOOOOO.O ",
"+OOOOOOOOOOOOOO.+OOOOOOOOOOOOOO ",
"                                "
};
