/* XPM */
static char *fa9d88e40ed348b6a14f59680d15c219QRU1I9F2rbHF4lE8[] = {
/* columns rows colors chars-per-pixel */
"33 32 98 2 ",
"   c #3B1F0E",
".  c #3D210F",
"X  c #3D2210",
"o  c #3D2B11",
"O  c #3F2D12",
"+  c #402F12",
"@  c #452A15",
"#  c #412E14",
"$  c #462C15",
"%  c #4A2E17",
"&  c #433115",
"*  c #443216",
"=  c #4C3617",
"-  c #4B3318",
";  c #493419",
":  c #4D3718",
">  c #4F371D",
",  c #4F3A18",
"<  c #4D381C",
"1  c #50371F",
"2  c #523B18",
"3  c #523C1A",
"4  c #51381F",
"5  c #523C1E",
"6  c #583F1F",
"7  c #533B20",
"8  c #543C20",
"9  c #54401E",
"0  c #58421F",
"q  c #5B4220",
"w  c #5C4321",
"e  c #5F4723",
"r  c #5C4D20",
"t  c #614623",
"y  c #624724",
"u  c #614823",
"i  c #654826",
"p  c #634C24",
"a  c #644D24",
"s  c #684B28",
"d  c #625024",
"f  c #645125",
"g  c #695127",
"h  c #6D5B26",
"j  c #6F5C27",
"k  c #6C5529",
"l  c #6E5829",
"z  c #6F5C28",
"x  c #76502E",
"c  c #725F28",
"v  c #725E29",
"b  c #7B5331",
"n  c #7D5431",
"m  c #7D5432",
"M  c #785E36",
"N  c #736129",
"B  c #776029",
"V  c #76622C",
"C  c #7A672D",
"Z  c #7A6233",
"A  c #7D6435",
"S  c #845C37",
"D  c #855E38",
"F  c #85692B",
"G  c #816B35",
"H  c #826D35",
"J  c #876B3F",
"K  c #88713A",
"L  c #A5772E",
"P  c #8B7341",
"I  c #947B41",
"U  c #957C43",
"Y  c #937B44",
"T  c #957C44",
"R  c #988144",
"E  c #A78856",
"W  c #AA8A57",
"Q  c #B7965F",
"!  c #B8975F",
"~  c #B89760",
"^  c #BA9860",
"/  c #CAA668",
"(  c #CDA86A",
")  c #D1AC6B",
"_  c #D1AD6C",
"`  c #D4B56D",
"'  c #D5B86E",
"]  c #DEB773",
"[  c #DEB873",
"{  c #E2BB76",
"}  c #E3BC76",
"|  c #E6C077",
" . c #E7C278",
".. c #E8C278",
"X. c #EAC779",
"o. c #EAC87A",
"O. c #EBCB7A",
"+. c #ECCC7A",
/* pixels */
"L F N B B B B B B B B B l c l k k e g e q q q q q q q q q q q e L ",
"B 2 > 7 7 7 7 7 7 7 7 7 7 7 7 7 7 4 7 4 1 1 1 1 1 1 1 1 1 1 1 4 B ",
"K = E ~ ! ! ! ! ! ! ! ! ! ! ! ! ! ! ! ! ! ! ! ! ! ! ! ! ! ! ! Q K ",
"U : ( { { { { { { { { { { { { { { { { { { { { { { { { { { { { { U ",
"I 3 / [ ] ] [ [ [ [ [ [ [ [ [ [ [ [ [ [ [ [ [ [ [ [ [ [ ] ] ] ] I ",
"V c Z A A A G H H H H H H H H H H H H H H H H H H H H H A A A G C ",
"c , > 7 7 7 7 7 7 7 7 7 7 7 7 7 7 7 7 7 7 7 7 7 7 7 7 7 7 7 7 8 c ",
"K = E ~ ! ! ! ! ! ! ! ! ! ! ! ! ! ! ! ! ! ! ! ! ! ! ! ! ! ! ! Q K ",
"U : ( } } } { { { { { { } } { { { { { { { { } } { { { { { { { { U ",
"R : ) X. .X. .X. .X. .X. .o. .X. .X. .X. .X. .X. .X. .X. .X. .X.R ",
"U : ` ..o. .o. .o. .X. .o. .o. .o. .X. .o. .o. .o. .X. .o. .X.| U ",
"T - _ o.o.o. .o.o.o. .o.o.o. .o.o.o. .o.o.o. .o.o.o. .o.o.o. .X.T ",
"R : ` o. .o.o.o. .o.o.o. .o.o.o. .o.o.o. .o.o.o. .o.o.o. .o.o.o.R ",
"T - ' +.o.o.o.o.o.o.o.o.o.o.o.O.o.o.o.o.o.o.o.o.o.o.o.o.o.o.o.o.T ",
"Y - ' +.o.o.o.o.o.o.o.o.o.o.o.o.o.o.o.o.o.O.o.o.O.o.o.o.o.o.o.o.Y ",
"P $ ' +.o.o.o.o.o.o.o.o.o.o.o.o.o.o.o.o.O.O.o.o.o.o.o.o.o.o.o.o.P ",
"P @ ` o.o.o.o.o.o.o.o.o.o.o.o.o.o.o.o.o.o.o.o.o.o.o.o.o.o.o.o.o.P ",
"J @ ( } } } } } } } } } } } } } } } } } } } } } } } } } } } } { J ",
"M % W ^ ^ ^ ^ ^ ^ ^ ^ ^ ^ ^ ^ ^ ^ ^ ^ ^ ^ ^ ^ ^ ^ ^ ^ ^ ^ ^ ^ ^ M ",
"s x S D D D D D D D D D D D D D D D D D D D D D D D D D D D D D c ",
"e t y y y y y y y y y y y y y y u y y y y y y y y y y y y y y y u ",
"e w q q q q q q q q q q q q q q q q q q q q q q q q q q q q q q e ",
"6 @ . .       . . . .       . . . .       . . . .       . . . X 6 ",
"0 * ; : # o + ; : : : # o + ; : : : # o O ; : : : # o + ; : : < q ",
"q 4 q e < # r 9 q e 5 : # r 9 q e 5 : # 0 5 q e 5 : # r 9 q e e e ",
"q 4 q e 4 & h p e e e 4 # h p e e e 4 & h p e e e 4 & h p e e e e ",
"q 4 q e 4 & j a e e e 4 & j a e e e 4 , c a e e e 4 & j a e e e e ",
"q 4 q e 4 , z a e e e 4 , z a e e e 4 * h a e e e 4 , z a e e e e ",
"w 8 e y 8 ; d u y y y 8 ; d u y y y 8 4 f u y y y 8 ; d u y y y e ",
"i x m m m b m m m m m m b m m m m m m m m m m m m m b m m m m m i ",
"e t y y u y y y y y y y y y y y y y y y y y y y y y y y y y y y e ",
"e e e w w w w w w w w w w w w w w w w w w w w w w w w w e e e e e "
};
