/* XPM */
static char *_5f30b9489d04b218cafd9ae2792a8321bQmcUtusta852vF[] = {
/* columns rows colors chars-per-pixel */
"32 32 6 1 ",
"  c #3D2C11",
". c #4D381C",
"X c #5E4522",
"o c #70592B",
"O c #78652B",
"+ c #916A3B",
/* pixels */
".oXXX.oXXXX.oXXX.oXXX.oXXX.oXXXX",
" oXXX.oXXXX.oXXX.oXXX.oXXX.oXXXX",
".oXXX.oXXXX.oXXX.oXXX.oXXX.oXXXX",
" +XXX.oXXXX oXXX.oXXX oXXX oXXXX",
" oXXX oXXXX oXXX oXXX.oXXX.oXXXX",
" oXXX.OXXXX X... OXXX OXXX OXXXX",
" +XXX OXXXX  ..  OXXX OXXX OXXXX",
" +XXX +XXXX .+X. OXXX X... +XXXX",
" +XXX OXXXX OoXX OXXX  ..  OXXXX",
" +XXX +XXXX +XXX +XXX .+X. +XXXX",
" +XXX +XXXX +XXX +XXX +oXX +XXXX",
" +XXX +XXXX +XXX +XXX +XXX +XXXX",
" +XXX +XXXX +XXX +XXX +XXX +XXXX",
" X... +XXXX +XXX +XXX +XXX +XXXX",
"  ..  +XXXX +XXX +XXX +XXX +XXXX",
" .+X. +XXXX +XXX +XXX +XXX +XXXX",
" ooXX X.... +XXX +XXX +XXX +XXXX",
".+XXX  ...  +XXX +XXX +XXX +XXXX",
" +XXX .+oX. +XXX +XXX +XXX X....",
" +XXX +oXXX +XXX +... +XXX  ... ",
" +XXX +XXXX +XXX  ..  +XXX .+oX.",
" +XXX +XXXX +XXX .+X. +XXX +oXXX",
" +XXX +XXXX +XXX +oXX +XXX +XXXX",
" +XXX +XXXX +XXX +XXX +XXX +XXXX",
" +XXX +XXXX +XXX +XXX +XXX +XXXX",
" +XXX.+XXXX +XXX +XXX +XXX +XXXX",
" +XXX OXXXX OXXX OXXX OXXX OXXXX",
" oXXX.+XXXX.OXXX +XXX OXXX.OXXXX",
".+XXX.OXXXX OXXX.OXXX.OXXX OXXXX",
" oXXX.OXXXX.OXXX OXXX OXXX.OXXXX",
".oXXX.oXXXX.oXXX.oXXX.oXXX.oXXXX",
".oXXX.oXXXX.oXXX.oXXX.oXXX.oXXXX"
};
